<mxfile host="app.diagrams.net" agent="Mozilla/5.0 (Windows NT 10.0; Win64; x64) AppleWebKit/537.36 (KHTML, like Gecko) Chrome/137.0.0.0 Safari/537.36" version="27.1.4" pages="3">
  <diagram name="BookStore" id="6W71OpMdbXhJagLTuitN">
    <mxGraphModel dx="786" dy="399" grid="1" gridSize="10" guides="1" tooltips="1" connect="1" arrows="1" fold="1" page="1" pageScale="1" pageWidth="850" pageHeight="1100" math="0" shadow="0">
      <root>
        <mxCell id="0" />
        <mxCell id="1" parent="0" />
        <mxCell id="x9r2q8XBfQOKvM6Fccm_-1" value="&lt;b&gt;&lt;font style=&quot;font-size: 18px;&quot;&gt;Bookstore Relational Model&lt;/font&gt;&lt;/b&gt;" style="rounded=1;whiteSpace=wrap;html=1;fillColor=#a20025;fontColor=#ffffff;strokeColor=#6F0000;" parent="1" vertex="1">
          <mxGeometry x="200" y="20" width="450" height="50" as="geometry" />
        </mxCell>
        <mxCell id="x9r2q8XBfQOKvM6Fccm_-10" value="" style="edgeStyle=orthogonalEdgeStyle;rounded=0;orthogonalLoop=1;jettySize=auto;html=1;" parent="1" source="x9r2q8XBfQOKvM6Fccm_-2" target="x9r2q8XBfQOKvM6Fccm_-3" edge="1">
          <mxGeometry relative="1" as="geometry" />
        </mxCell>
        <mxCell id="x9r2q8XBfQOKvM6Fccm_-2" value="Book Store" style="rounded=1;whiteSpace=wrap;html=1;fillColor=#60a917;fontColor=#ffffff;strokeColor=#2D7600;" parent="1" vertex="1">
          <mxGeometry x="40" y="100" width="110" height="60" as="geometry" />
        </mxCell>
        <mxCell id="x9r2q8XBfQOKvM6Fccm_-11" value="" style="edgeStyle=orthogonalEdgeStyle;rounded=0;orthogonalLoop=1;jettySize=auto;html=1;" parent="1" source="x9r2q8XBfQOKvM6Fccm_-3" target="x9r2q8XBfQOKvM6Fccm_-4" edge="1">
          <mxGeometry relative="1" as="geometry" />
        </mxCell>
        <mxCell id="x9r2q8XBfQOKvM6Fccm_-3" value="sell" style="rhombus;whiteSpace=wrap;html=1;fillColor=#fa6800;fontColor=#000000;strokeColor=#C73500;" parent="1" vertex="1">
          <mxGeometry x="220" y="90" width="80" height="80" as="geometry" />
        </mxCell>
        <mxCell id="x9r2q8XBfQOKvM6Fccm_-12" value="" style="edgeStyle=orthogonalEdgeStyle;rounded=0;orthogonalLoop=1;jettySize=auto;html=1;" parent="1" source="x9r2q8XBfQOKvM6Fccm_-4" target="x9r2q8XBfQOKvM6Fccm_-6" edge="1">
          <mxGeometry relative="1" as="geometry" />
        </mxCell>
        <mxCell id="x9r2q8XBfQOKvM6Fccm_-14" value="" style="edgeStyle=orthogonalEdgeStyle;rounded=0;orthogonalLoop=1;jettySize=auto;html=1;" parent="1" source="x9r2q8XBfQOKvM6Fccm_-4" target="x9r2q8XBfQOKvM6Fccm_-8" edge="1">
          <mxGeometry relative="1" as="geometry" />
        </mxCell>
        <mxCell id="x9r2q8XBfQOKvM6Fccm_-4" value="Books" style="rounded=1;whiteSpace=wrap;html=1;fillColor=#b0e3e6;strokeColor=#0e8088;" parent="1" vertex="1">
          <mxGeometry x="350" y="100" width="120" height="60" as="geometry" />
        </mxCell>
        <mxCell id="x9r2q8XBfQOKvM6Fccm_-13" value="" style="edgeStyle=orthogonalEdgeStyle;rounded=0;orthogonalLoop=1;jettySize=auto;html=1;" parent="1" source="x9r2q8XBfQOKvM6Fccm_-6" target="x9r2q8XBfQOKvM6Fccm_-7" edge="1">
          <mxGeometry relative="1" as="geometry" />
        </mxCell>
        <mxCell id="x9r2q8XBfQOKvM6Fccm_-6" value="Categorized" style="rhombus;whiteSpace=wrap;html=1;fillColor=#ffcd28;gradientColor=#ffa500;strokeColor=#d79b00;" parent="1" vertex="1">
          <mxGeometry x="550" y="90" width="80" height="80" as="geometry" />
        </mxCell>
        <mxCell id="x9r2q8XBfQOKvM6Fccm_-7" value="Genre" style="rounded=1;whiteSpace=wrap;html=1;fillColor=#0050ef;fontColor=#ffffff;strokeColor=#001DBC;" parent="1" vertex="1">
          <mxGeometry x="680" y="100" width="120" height="60" as="geometry" />
        </mxCell>
        <mxCell id="x9r2q8XBfQOKvM6Fccm_-15" value="" style="edgeStyle=orthogonalEdgeStyle;rounded=0;orthogonalLoop=1;jettySize=auto;html=1;" parent="1" source="x9r2q8XBfQOKvM6Fccm_-8" target="x9r2q8XBfQOKvM6Fccm_-9" edge="1">
          <mxGeometry relative="1" as="geometry" />
        </mxCell>
        <mxCell id="x9r2q8XBfQOKvM6Fccm_-8" value="Purchases" style="rhombus;whiteSpace=wrap;html=1;fillColor=#d80073;fontColor=#ffffff;strokeColor=#A50040;" parent="1" vertex="1">
          <mxGeometry x="370" y="220" width="80" height="80" as="geometry" />
        </mxCell>
        <mxCell id="x9r2q8XBfQOKvM6Fccm_-9" value="Customer" style="rounded=1;whiteSpace=wrap;html=1;fillColor=#a20025;fontColor=#ffffff;strokeColor=#6F0000;" parent="1" vertex="1">
          <mxGeometry x="350" y="350" width="120" height="60" as="geometry" />
        </mxCell>
        <mxCell id="x9r2q8XBfQOKvM6Fccm_-16" value="1:1" style="text;html=1;align=center;verticalAlign=middle;resizable=0;points=[];autosize=1;strokeColor=none;fillColor=none;" parent="1" vertex="1">
          <mxGeometry x="150" y="88" width="40" height="30" as="geometry" />
        </mxCell>
        <mxCell id="x9r2q8XBfQOKvM6Fccm_-17" value="1:M" style="text;html=1;align=center;verticalAlign=middle;resizable=0;points=[];autosize=1;strokeColor=none;fillColor=none;" parent="1" vertex="1">
          <mxGeometry x="290" y="88" width="40" height="30" as="geometry" />
        </mxCell>
        <mxCell id="x9r2q8XBfQOKvM6Fccm_-18" value="&lt;b&gt;1:M&lt;/b&gt;" style="text;html=1;align=center;verticalAlign=middle;resizable=0;points=[];autosize=1;strokeColor=none;fillColor=none;" parent="1" vertex="1">
          <mxGeometry x="240" y="68" width="40" height="30" as="geometry" />
        </mxCell>
        <mxCell id="x9r2q8XBfQOKvM6Fccm_-19" value="1:M" style="text;html=1;align=center;verticalAlign=middle;resizable=0;points=[];autosize=1;strokeColor=none;fillColor=none;" parent="1" vertex="1">
          <mxGeometry x="460" y="98" width="40" height="30" as="geometry" />
        </mxCell>
        <mxCell id="x9r2q8XBfQOKvM6Fccm_-20" value="1:1" style="text;html=1;align=center;verticalAlign=middle;resizable=0;points=[];autosize=1;strokeColor=none;fillColor=none;" parent="1" vertex="1">
          <mxGeometry x="640" y="98" width="40" height="30" as="geometry" />
        </mxCell>
        <mxCell id="x9r2q8XBfQOKvM6Fccm_-21" value="&lt;b&gt;1:M&lt;/b&gt;" style="text;html=1;align=center;verticalAlign=middle;resizable=0;points=[];autosize=1;strokeColor=none;fillColor=none;" parent="1" vertex="1">
          <mxGeometry x="580" y="68" width="40" height="30" as="geometry" />
        </mxCell>
        <mxCell id="x9r2q8XBfQOKvM6Fccm_-22" value="1:M" style="text;html=1;align=center;verticalAlign=middle;resizable=0;points=[];autosize=1;strokeColor=none;fillColor=none;" parent="1" vertex="1">
          <mxGeometry x="400" y="158" width="40" height="30" as="geometry" />
        </mxCell>
        <mxCell id="x9r2q8XBfQOKvM6Fccm_-23" value="1:M" style="text;html=1;align=center;verticalAlign=middle;resizable=0;points=[];autosize=1;strokeColor=none;fillColor=none;" parent="1" vertex="1">
          <mxGeometry x="420" y="298" width="40" height="30" as="geometry" />
        </mxCell>
        <mxCell id="x9r2q8XBfQOKvM6Fccm_-24" value="&lt;b&gt;M:M&lt;/b&gt;" style="text;html=1;align=center;verticalAlign=middle;resizable=0;points=[];autosize=1;strokeColor=none;fillColor=none;" parent="1" vertex="1">
          <mxGeometry x="455" y="238" width="50" height="30" as="geometry" />
        </mxCell>
        <mxCell id="x9r2q8XBfQOKvM6Fccm_-25" value="&lt;u&gt;&lt;b&gt;&lt;font style=&quot;font-size: 17px;&quot;&gt;Logical Model for the Book Store&lt;/font&gt;&lt;/b&gt;&lt;/u&gt;&lt;div&gt;Bookstore(&lt;u&gt;Store_Id,&lt;/u&gt; name, address, location, Reg._No)&lt;/div&gt;&lt;div&gt;Books(&lt;u&gt;Book_id, #genre_id,&lt;/u&gt;&amp;nbsp;&lt;span style=&quot;background-color: transparent; color: light-dark(rgb(0, 0, 0), rgb(255, 255, 255));&quot;&gt;#store_id,&amp;nbsp;&lt;/span&gt;&lt;span style=&quot;background-color: transparent; color: light-dark(rgb(0, 0, 0), rgb(255, 255, 255));&quot;&gt;title, author, ISBN_No)&lt;/span&gt;&lt;/div&gt;&lt;div&gt;Customer(&lt;u&gt;Cust_id,&lt;/u&gt;&amp;nbsp;name, address, phone_no, email)&lt;/div&gt;&lt;div&gt;Purchase(#Book_id, #Cust_id,&lt;u&gt; purchase_id&lt;/u&gt;, unit_price, quantity, total_amount)&lt;/div&gt;&lt;div&gt;Genre(&lt;u&gt;genre_id,&lt;/u&gt;&amp;nbsp;name, category, description)&lt;/div&gt;" style="rounded=1;whiteSpace=wrap;html=1;" parent="1" vertex="1">
          <mxGeometry x="62" y="470" width="508" height="220" as="geometry" />
        </mxCell>
      </root>
    </mxGraphModel>
  </diagram>
  <diagram name="User" id="y6Rat9ORwWtfnSb8yLUx">
    <mxGraphModel dx="786" dy="399" grid="1" gridSize="10" guides="1" tooltips="1" connect="1" arrows="1" fold="1" page="1" pageScale="1" pageWidth="850" pageHeight="1100" math="0" shadow="0">
      <root>
        <mxCell id="78nABVS6Pnc2C8T00LXM-0" />
        <mxCell id="78nABVS6Pnc2C8T00LXM-1" parent="78nABVS6Pnc2C8T00LXM-0" />
        <mxCell id="78nABVS6Pnc2C8T00LXM-2" value="&lt;b&gt;&lt;font style=&quot;font-size: 18px;&quot;&gt;User Relational Model&lt;/font&gt;&lt;/b&gt;" style="rounded=1;whiteSpace=wrap;html=1;fillColor=#fa6800;fontColor=#000000;strokeColor=#C73500;" vertex="1" parent="78nABVS6Pnc2C8T00LXM-1">
          <mxGeometry x="200" y="20" width="450" height="50" as="geometry" />
        </mxCell>
        <mxCell id="78nABVS6Pnc2C8T00LXM-3" value="" style="edgeStyle=orthogonalEdgeStyle;rounded=0;orthogonalLoop=1;jettySize=auto;html=1;" edge="1" parent="78nABVS6Pnc2C8T00LXM-1" source="78nABVS6Pnc2C8T00LXM-4" target="78nABVS6Pnc2C8T00LXM-6">
          <mxGeometry relative="1" as="geometry" />
        </mxCell>
        <mxCell id="78nABVS6Pnc2C8T00LXM-4" value="User" style="rounded=1;whiteSpace=wrap;html=1;fillColor=#a20025;fontColor=#ffffff;strokeColor=#6F0000;" vertex="1" parent="78nABVS6Pnc2C8T00LXM-1">
          <mxGeometry x="40" y="100" width="110" height="60" as="geometry" />
        </mxCell>
        <mxCell id="78nABVS6Pnc2C8T00LXM-5" value="" style="edgeStyle=orthogonalEdgeStyle;rounded=0;orthogonalLoop=1;jettySize=auto;html=1;" edge="1" parent="78nABVS6Pnc2C8T00LXM-1" source="78nABVS6Pnc2C8T00LXM-6" target="78nABVS6Pnc2C8T00LXM-9">
          <mxGeometry relative="1" as="geometry" />
        </mxCell>
        <mxCell id="78nABVS6Pnc2C8T00LXM-6" value="Watch" style="rhombus;whiteSpace=wrap;html=1;fillColor=#fa6800;fontColor=#000000;strokeColor=#C73500;" vertex="1" parent="78nABVS6Pnc2C8T00LXM-1">
          <mxGeometry x="220" y="90" width="80" height="80" as="geometry" />
        </mxCell>
        <mxCell id="78nABVS6Pnc2C8T00LXM-7" value="" style="edgeStyle=orthogonalEdgeStyle;rounded=0;orthogonalLoop=1;jettySize=auto;html=1;" edge="1" parent="78nABVS6Pnc2C8T00LXM-1" source="78nABVS6Pnc2C8T00LXM-9" target="78nABVS6Pnc2C8T00LXM-11">
          <mxGeometry relative="1" as="geometry" />
        </mxCell>
        <mxCell id="78nABVS6Pnc2C8T00LXM-8" value="" style="edgeStyle=orthogonalEdgeStyle;rounded=0;orthogonalLoop=1;jettySize=auto;html=1;" edge="1" parent="78nABVS6Pnc2C8T00LXM-1" source="78nABVS6Pnc2C8T00LXM-9" target="78nABVS6Pnc2C8T00LXM-14">
          <mxGeometry relative="1" as="geometry" />
        </mxCell>
        <mxCell id="78nABVS6Pnc2C8T00LXM-9" value="Movies" style="rounded=1;whiteSpace=wrap;html=1;fillColor=#b0e3e6;strokeColor=#0e8088;" vertex="1" parent="78nABVS6Pnc2C8T00LXM-1">
          <mxGeometry x="350" y="100" width="120" height="60" as="geometry" />
        </mxCell>
        <mxCell id="78nABVS6Pnc2C8T00LXM-10" value="" style="edgeStyle=orthogonalEdgeStyle;rounded=0;orthogonalLoop=1;jettySize=auto;html=1;" edge="1" parent="78nABVS6Pnc2C8T00LXM-1" source="78nABVS6Pnc2C8T00LXM-11" target="78nABVS6Pnc2C8T00LXM-12">
          <mxGeometry relative="1" as="geometry" />
        </mxCell>
        <mxCell id="78nABVS6Pnc2C8T00LXM-11" value="Tracked" style="rhombus;whiteSpace=wrap;html=1;fillColor=#ffcd28;gradientColor=#ffa500;strokeColor=#d79b00;" vertex="1" parent="78nABVS6Pnc2C8T00LXM-1">
          <mxGeometry x="550" y="90" width="80" height="80" as="geometry" />
        </mxCell>
        <mxCell id="78nABVS6Pnc2C8T00LXM-12" value="Watch History" style="rounded=1;whiteSpace=wrap;html=1;fillColor=#0050ef;fontColor=#ffffff;strokeColor=#001DBC;" vertex="1" parent="78nABVS6Pnc2C8T00LXM-1">
          <mxGeometry x="680" y="100" width="120" height="60" as="geometry" />
        </mxCell>
        <mxCell id="78nABVS6Pnc2C8T00LXM-13" value="" style="edgeStyle=orthogonalEdgeStyle;rounded=0;orthogonalLoop=1;jettySize=auto;html=1;" edge="1" parent="78nABVS6Pnc2C8T00LXM-1" source="78nABVS6Pnc2C8T00LXM-14" target="78nABVS6Pnc2C8T00LXM-15">
          <mxGeometry relative="1" as="geometry" />
        </mxCell>
        <mxCell id="78nABVS6Pnc2C8T00LXM-14" value="Belongs" style="rhombus;whiteSpace=wrap;html=1;fillColor=#d80073;fontColor=#ffffff;strokeColor=#A50040;" vertex="1" parent="78nABVS6Pnc2C8T00LXM-1">
          <mxGeometry x="370" y="220" width="80" height="80" as="geometry" />
        </mxCell>
        <mxCell id="78nABVS6Pnc2C8T00LXM-15" value="Genre" style="rounded=1;whiteSpace=wrap;html=1;fillColor=#008a00;fontColor=#ffffff;strokeColor=#005700;" vertex="1" parent="78nABVS6Pnc2C8T00LXM-1">
          <mxGeometry x="350" y="350" width="120" height="60" as="geometry" />
        </mxCell>
        <mxCell id="78nABVS6Pnc2C8T00LXM-16" value="1:M" style="text;html=1;align=center;verticalAlign=middle;resizable=0;points=[];autosize=1;strokeColor=none;fillColor=none;" vertex="1" parent="78nABVS6Pnc2C8T00LXM-1">
          <mxGeometry x="150" y="88" width="40" height="30" as="geometry" />
        </mxCell>
        <mxCell id="78nABVS6Pnc2C8T00LXM-17" value="1:M" style="text;html=1;align=center;verticalAlign=middle;resizable=0;points=[];autosize=1;strokeColor=none;fillColor=none;" vertex="1" parent="78nABVS6Pnc2C8T00LXM-1">
          <mxGeometry x="290" y="88" width="40" height="30" as="geometry" />
        </mxCell>
        <mxCell id="78nABVS6Pnc2C8T00LXM-18" value="&lt;b&gt;M:M&lt;/b&gt;" style="text;html=1;align=center;verticalAlign=middle;resizable=0;points=[];autosize=1;strokeColor=none;fillColor=none;" vertex="1" parent="78nABVS6Pnc2C8T00LXM-1">
          <mxGeometry x="235" y="68" width="50" height="30" as="geometry" />
        </mxCell>
        <mxCell id="78nABVS6Pnc2C8T00LXM-19" value="1:M" style="text;html=1;align=center;verticalAlign=middle;resizable=0;points=[];autosize=1;strokeColor=none;fillColor=none;" vertex="1" parent="78nABVS6Pnc2C8T00LXM-1">
          <mxGeometry x="460" y="98" width="40" height="30" as="geometry" />
        </mxCell>
        <mxCell id="78nABVS6Pnc2C8T00LXM-20" value="1:1" style="text;html=1;align=center;verticalAlign=middle;resizable=0;points=[];autosize=1;strokeColor=none;fillColor=none;" vertex="1" parent="78nABVS6Pnc2C8T00LXM-1">
          <mxGeometry x="640" y="98" width="40" height="30" as="geometry" />
        </mxCell>
        <mxCell id="78nABVS6Pnc2C8T00LXM-21" value="&lt;b&gt;1:M&lt;/b&gt;" style="text;html=1;align=center;verticalAlign=middle;resizable=0;points=[];autosize=1;strokeColor=none;fillColor=none;" vertex="1" parent="78nABVS6Pnc2C8T00LXM-1">
          <mxGeometry x="580" y="68" width="40" height="30" as="geometry" />
        </mxCell>
        <mxCell id="78nABVS6Pnc2C8T00LXM-22" value="1:M" style="text;html=1;align=center;verticalAlign=middle;resizable=0;points=[];autosize=1;strokeColor=none;fillColor=none;" vertex="1" parent="78nABVS6Pnc2C8T00LXM-1">
          <mxGeometry x="400" y="158" width="40" height="30" as="geometry" />
        </mxCell>
        <mxCell id="78nABVS6Pnc2C8T00LXM-23" value="1:M" style="text;html=1;align=center;verticalAlign=middle;resizable=0;points=[];autosize=1;strokeColor=none;fillColor=none;" vertex="1" parent="78nABVS6Pnc2C8T00LXM-1">
          <mxGeometry x="420" y="298" width="40" height="30" as="geometry" />
        </mxCell>
        <mxCell id="78nABVS6Pnc2C8T00LXM-24" value="&lt;b&gt;M:M&lt;/b&gt;" style="text;html=1;align=center;verticalAlign=middle;resizable=0;points=[];autosize=1;strokeColor=none;fillColor=none;" vertex="1" parent="78nABVS6Pnc2C8T00LXM-1">
          <mxGeometry x="455" y="238" width="50" height="30" as="geometry" />
        </mxCell>
        <mxCell id="78nABVS6Pnc2C8T00LXM-25" value="&lt;u&gt;&lt;b&gt;&lt;font style=&quot;font-size: 17px;&quot;&gt;Logical Model for the User&lt;/font&gt;&lt;/b&gt;&lt;/u&gt;&lt;div&gt;User(&lt;u&gt;User_Id,&lt;/u&gt; name, address, location, Phone_number, time)&lt;/div&gt;&lt;div&gt;Movies(&lt;u&gt;movie_id, &lt;/u&gt;#watch_id&lt;u&gt;,&lt;/u&gt;&amp;nbsp;title, producer, director, date_of_release, start_time, end_time, budget)&lt;/div&gt;&lt;div&gt;Genre(&lt;u&gt;genre_id,&lt;/u&gt;&amp;nbsp;name, type, description)&lt;/div&gt;&lt;div&gt;Watch History(&lt;u&gt;watch_id&lt;/u&gt;, duration, number_of_time_watched, rating)&lt;/div&gt;&lt;div&gt;Watch(#user_id, #movie_id, duration, end_time, quality, memory_size)&lt;/div&gt;&lt;div&gt;Belong(#movie_id, #genre_id, title, budget, producer, type)&lt;/div&gt;" style="rounded=1;whiteSpace=wrap;html=1;" vertex="1" parent="78nABVS6Pnc2C8T00LXM-1">
          <mxGeometry x="62" y="470" width="508" height="220" as="geometry" />
        </mxCell>
      </root>
    </mxGraphModel>
  </diagram>
  <diagram name="Gym" id="9Oqqm34CgVz8OzuvE7wQ">
    <mxGraphModel dx="786" dy="399" grid="1" gridSize="10" guides="1" tooltips="1" connect="1" arrows="1" fold="1" page="1" pageScale="1" pageWidth="850" pageHeight="1100" math="0" shadow="0">
      <root>
        <mxCell id="yAdqxlsbOHW5ZzWfXpd4-0" />
        <mxCell id="yAdqxlsbOHW5ZzWfXpd4-1" parent="yAdqxlsbOHW5ZzWfXpd4-0" />
        <mxCell id="yAdqxlsbOHW5ZzWfXpd4-2" value="&lt;b&gt;&lt;font style=&quot;font-size: 18px;&quot;&gt;Gym Relational Model&lt;/font&gt;&lt;/b&gt;" style="rounded=1;whiteSpace=wrap;html=1;fillColor=#fa6800;fontColor=#000000;strokeColor=#C73500;" vertex="1" parent="yAdqxlsbOHW5ZzWfXpd4-1">
          <mxGeometry x="200" y="20" width="450" height="50" as="geometry" />
        </mxCell>
        <mxCell id="yAdqxlsbOHW5ZzWfXpd4-3" value="" style="edgeStyle=orthogonalEdgeStyle;rounded=0;orthogonalLoop=1;jettySize=auto;html=1;" edge="1" parent="yAdqxlsbOHW5ZzWfXpd4-1" source="yAdqxlsbOHW5ZzWfXpd4-4" target="yAdqxlsbOHW5ZzWfXpd4-6">
          <mxGeometry relative="1" as="geometry" />
        </mxCell>
        <mxCell id="celTrkumwfMhJjQlDYQd-0" value="" style="edgeStyle=orthogonalEdgeStyle;rounded=0;orthogonalLoop=1;jettySize=auto;html=1;" edge="1" parent="yAdqxlsbOHW5ZzWfXpd4-1" source="yAdqxlsbOHW5ZzWfXpd4-4" target="yAdqxlsbOHW5ZzWfXpd4-14">
          <mxGeometry relative="1" as="geometry" />
        </mxCell>
        <mxCell id="yAdqxlsbOHW5ZzWfXpd4-4" value="Member" style="rounded=1;whiteSpace=wrap;html=1;fillColor=#a20025;fontColor=#ffffff;strokeColor=#6F0000;" vertex="1" parent="yAdqxlsbOHW5ZzWfXpd4-1">
          <mxGeometry x="40" y="100" width="110" height="60" as="geometry" />
        </mxCell>
        <mxCell id="yAdqxlsbOHW5ZzWfXpd4-5" value="" style="edgeStyle=orthogonalEdgeStyle;rounded=0;orthogonalLoop=1;jettySize=auto;html=1;" edge="1" parent="yAdqxlsbOHW5ZzWfXpd4-1" source="yAdqxlsbOHW5ZzWfXpd4-6" target="yAdqxlsbOHW5ZzWfXpd4-9">
          <mxGeometry relative="1" as="geometry" />
        </mxCell>
        <mxCell id="yAdqxlsbOHW5ZzWfXpd4-6" value="Enroll" style="rhombus;whiteSpace=wrap;html=1;fillColor=#fa6800;fontColor=#000000;strokeColor=#C73500;" vertex="1" parent="yAdqxlsbOHW5ZzWfXpd4-1">
          <mxGeometry x="220" y="90" width="80" height="80" as="geometry" />
        </mxCell>
        <mxCell id="yAdqxlsbOHW5ZzWfXpd4-7" value="" style="edgeStyle=orthogonalEdgeStyle;rounded=0;orthogonalLoop=1;jettySize=auto;html=1;" edge="1" parent="yAdqxlsbOHW5ZzWfXpd4-1" source="yAdqxlsbOHW5ZzWfXpd4-9" target="yAdqxlsbOHW5ZzWfXpd4-11">
          <mxGeometry relative="1" as="geometry" />
        </mxCell>
        <mxCell id="yAdqxlsbOHW5ZzWfXpd4-9" value="Classes" style="rounded=1;whiteSpace=wrap;html=1;fillColor=#b0e3e6;strokeColor=#0e8088;" vertex="1" parent="yAdqxlsbOHW5ZzWfXpd4-1">
          <mxGeometry x="350" y="100" width="120" height="60" as="geometry" />
        </mxCell>
        <mxCell id="yAdqxlsbOHW5ZzWfXpd4-10" value="" style="edgeStyle=orthogonalEdgeStyle;rounded=0;orthogonalLoop=1;jettySize=auto;html=1;" edge="1" parent="yAdqxlsbOHW5ZzWfXpd4-1" source="yAdqxlsbOHW5ZzWfXpd4-11" target="yAdqxlsbOHW5ZzWfXpd4-12">
          <mxGeometry relative="1" as="geometry" />
        </mxCell>
        <mxCell id="yAdqxlsbOHW5ZzWfXpd4-11" value="Taken" style="rhombus;whiteSpace=wrap;html=1;fillColor=#ffcd28;gradientColor=#ffa500;strokeColor=#d79b00;" vertex="1" parent="yAdqxlsbOHW5ZzWfXpd4-1">
          <mxGeometry x="370" y="240" width="80" height="80" as="geometry" />
        </mxCell>
        <mxCell id="yAdqxlsbOHW5ZzWfXpd4-12" value="Trainer" style="rounded=1;whiteSpace=wrap;html=1;fillColor=#0050ef;fontColor=#ffffff;strokeColor=#001DBC;" vertex="1" parent="yAdqxlsbOHW5ZzWfXpd4-1">
          <mxGeometry x="350" y="370" width="120" height="60" as="geometry" />
        </mxCell>
        <mxCell id="yAdqxlsbOHW5ZzWfXpd4-13" value="" style="edgeStyle=orthogonalEdgeStyle;rounded=0;orthogonalLoop=1;jettySize=auto;html=1;" edge="1" parent="yAdqxlsbOHW5ZzWfXpd4-1" source="yAdqxlsbOHW5ZzWfXpd4-14" target="yAdqxlsbOHW5ZzWfXpd4-15">
          <mxGeometry relative="1" as="geometry" />
        </mxCell>
        <mxCell id="yAdqxlsbOHW5ZzWfXpd4-14" value="Assigned" style="rhombus;whiteSpace=wrap;html=1;fillColor=#d80073;fontColor=#ffffff;strokeColor=#A50040;" vertex="1" parent="yAdqxlsbOHW5ZzWfXpd4-1">
          <mxGeometry x="55" y="218" width="80" height="80" as="geometry" />
        </mxCell>
        <mxCell id="LsmmoKkd7jHMWAY8KYet-2" value="" style="edgeStyle=orthogonalEdgeStyle;rounded=0;orthogonalLoop=1;jettySize=auto;html=1;" edge="1" parent="yAdqxlsbOHW5ZzWfXpd4-1" source="yAdqxlsbOHW5ZzWfXpd4-15" target="LsmmoKkd7jHMWAY8KYet-0">
          <mxGeometry relative="1" as="geometry" />
        </mxCell>
        <mxCell id="yAdqxlsbOHW5ZzWfXpd4-15" value="Work out plan" style="rounded=1;whiteSpace=wrap;html=1;fillColor=#008a00;fontColor=#ffffff;strokeColor=#005700;" vertex="1" parent="yAdqxlsbOHW5ZzWfXpd4-1">
          <mxGeometry x="35" y="370" width="120" height="60" as="geometry" />
        </mxCell>
        <mxCell id="yAdqxlsbOHW5ZzWfXpd4-16" value="1:M" style="text;html=1;align=center;verticalAlign=middle;resizable=0;points=[];autosize=1;strokeColor=none;fillColor=none;" vertex="1" parent="yAdqxlsbOHW5ZzWfXpd4-1">
          <mxGeometry x="150" y="88" width="40" height="30" as="geometry" />
        </mxCell>
        <mxCell id="yAdqxlsbOHW5ZzWfXpd4-17" value="1:M" style="text;html=1;align=center;verticalAlign=middle;resizable=0;points=[];autosize=1;strokeColor=none;fillColor=none;" vertex="1" parent="yAdqxlsbOHW5ZzWfXpd4-1">
          <mxGeometry x="290" y="88" width="40" height="30" as="geometry" />
        </mxCell>
        <mxCell id="yAdqxlsbOHW5ZzWfXpd4-18" value="&lt;b&gt;M:M&lt;/b&gt;" style="text;html=1;align=center;verticalAlign=middle;resizable=0;points=[];autosize=1;strokeColor=none;fillColor=none;" vertex="1" parent="yAdqxlsbOHW5ZzWfXpd4-1">
          <mxGeometry x="235" y="68" width="50" height="30" as="geometry" />
        </mxCell>
        <mxCell id="yAdqxlsbOHW5ZzWfXpd4-22" value="1:M" style="text;html=1;align=center;verticalAlign=middle;resizable=0;points=[];autosize=1;strokeColor=none;fillColor=none;" vertex="1" parent="yAdqxlsbOHW5ZzWfXpd4-1">
          <mxGeometry x="400" y="158" width="40" height="30" as="geometry" />
        </mxCell>
        <mxCell id="yAdqxlsbOHW5ZzWfXpd4-25" value="&lt;u&gt;&lt;b&gt;&lt;font style=&quot;font-size: 17px;&quot;&gt;Logical Model for the Gym&lt;/font&gt;&lt;/b&gt;&lt;/u&gt;&lt;div&gt;Member(&lt;u&gt;member_id,&lt;/u&gt;&amp;nbsp;#class_id, name, address, location, weight)&lt;/div&gt;&lt;div&gt;Class(&lt;u&gt;class_Id&lt;/u&gt;, name, number_of_member, time, name_of_trainer, payment_plan)&lt;/div&gt;&lt;div&gt;Trainer(&lt;u&gt;trainer_id&lt;/u&gt;, name, age, address, email, phone_number, years_of_experience)&lt;/div&gt;&lt;div&gt;Work out plan( &lt;u&gt;workout_id&lt;/u&gt;, #trainer_id, name, category, description, start_time, end_time, start_date, end_date, number_of_members)&lt;/div&gt;&lt;div&gt;Assigned(#member_id, #workout_id, class, trainer, number_of_times, duration, daily, weekly, monthly, diet)&lt;/div&gt;&lt;div&gt;Enrol(#member_id, #class_id, payment_plan, duration, start_date, end_date, start_time, end_time)&lt;/div&gt;&lt;div&gt;&lt;br&gt;&lt;/div&gt;" style="rounded=1;whiteSpace=wrap;html=1;" vertex="1" parent="yAdqxlsbOHW5ZzWfXpd4-1">
          <mxGeometry x="62" y="470" width="628" height="220" as="geometry" />
        </mxCell>
        <mxCell id="celTrkumwfMhJjQlDYQd-1" value="1:1" style="text;html=1;align=center;verticalAlign=middle;resizable=0;points=[];autosize=1;strokeColor=none;fillColor=none;" vertex="1" parent="yAdqxlsbOHW5ZzWfXpd4-1">
          <mxGeometry x="410" y="318" width="40" height="30" as="geometry" />
        </mxCell>
        <mxCell id="celTrkumwfMhJjQlDYQd-2" value="&lt;b&gt;1:M&lt;/b&gt;" style="text;html=1;align=center;verticalAlign=middle;resizable=0;points=[];autosize=1;strokeColor=none;fillColor=none;" vertex="1" parent="yAdqxlsbOHW5ZzWfXpd4-1">
          <mxGeometry x="470" y="268" width="40" height="30" as="geometry" />
        </mxCell>
        <mxCell id="celTrkumwfMhJjQlDYQd-3" value="1:M" style="text;html=1;align=center;verticalAlign=middle;resizable=0;points=[];autosize=1;strokeColor=none;fillColor=none;" vertex="1" parent="yAdqxlsbOHW5ZzWfXpd4-1">
          <mxGeometry x="90" y="158" width="40" height="30" as="geometry" />
        </mxCell>
        <mxCell id="celTrkumwfMhJjQlDYQd-4" value="1:M" style="text;html=1;align=center;verticalAlign=middle;resizable=0;points=[];autosize=1;strokeColor=none;fillColor=none;" vertex="1" parent="yAdqxlsbOHW5ZzWfXpd4-1">
          <mxGeometry x="100" y="338" width="40" height="30" as="geometry" />
        </mxCell>
        <mxCell id="celTrkumwfMhJjQlDYQd-5" value="&lt;b&gt;M:M&lt;/b&gt;" style="text;html=1;align=center;verticalAlign=middle;resizable=0;points=[];autosize=1;strokeColor=none;fillColor=none;" vertex="1" parent="yAdqxlsbOHW5ZzWfXpd4-1">
          <mxGeometry x="125" y="248" width="50" height="30" as="geometry" />
        </mxCell>
        <mxCell id="LsmmoKkd7jHMWAY8KYet-3" value="" style="edgeStyle=orthogonalEdgeStyle;rounded=0;orthogonalLoop=1;jettySize=auto;html=1;" edge="1" parent="yAdqxlsbOHW5ZzWfXpd4-1" source="LsmmoKkd7jHMWAY8KYet-0" target="yAdqxlsbOHW5ZzWfXpd4-12">
          <mxGeometry relative="1" as="geometry" />
        </mxCell>
        <mxCell id="LsmmoKkd7jHMWAY8KYet-0" value="Gives" style="rhombus;whiteSpace=wrap;html=1;fillColor=#a0522d;fontColor=#ffffff;strokeColor=#6D1F00;" vertex="1" parent="yAdqxlsbOHW5ZzWfXpd4-1">
          <mxGeometry x="200" y="360" width="80" height="80" as="geometry" />
        </mxCell>
        <mxCell id="LsmmoKkd7jHMWAY8KYet-4" value="1:M" style="text;html=1;align=center;verticalAlign=middle;resizable=0;points=[];autosize=1;strokeColor=none;fillColor=none;" vertex="1" parent="yAdqxlsbOHW5ZzWfXpd4-1">
          <mxGeometry x="150" y="358" width="40" height="30" as="geometry" />
        </mxCell>
        <mxCell id="LsmmoKkd7jHMWAY8KYet-5" value="1:1" style="text;html=1;align=center;verticalAlign=middle;resizable=0;points=[];autosize=1;strokeColor=none;fillColor=none;" vertex="1" parent="yAdqxlsbOHW5ZzWfXpd4-1">
          <mxGeometry x="280" y="348" width="40" height="30" as="geometry" />
        </mxCell>
        <mxCell id="LsmmoKkd7jHMWAY8KYet-6" value="&lt;b&gt;1:M&lt;/b&gt;" style="text;html=1;align=center;verticalAlign=middle;resizable=0;points=[];autosize=1;strokeColor=none;fillColor=none;" vertex="1" parent="yAdqxlsbOHW5ZzWfXpd4-1">
          <mxGeometry x="210" y="318" width="40" height="30" as="geometry" />
        </mxCell>
      </root>
    </mxGraphModel>
  </diagram>
</mxfile>
